<svg xmlns="http://www.w3.org/2000/svg" width="40" height="40" fill="none" viewBox="0 0 40 40">
  <g fill="#000001" clip-path="url(#a)">
    <path d="M17.138 29.525h-1.9v3.813H9.526v1.9h13.337v-1.9h-5.725v-3.813ZM5.71 31.425V12.388h1.9v-1.913h-1.9v-1.9H-.001v26.663h5.713v-1.9h3.812v-1.913H5.711Zm-3.812 0v-3.8h1.913v3.8H1.898Z"/>
    <path d="M24.762 33.338v-1.913h-1.9v1.913h1.9ZM17.14 27.625v1.9h7.624v1.9h1.9v-3.8H17.14ZM17.137 27.625v-3.813h-1.9v3.813h1.9ZM15.238 20v-5.712h-1.9V20h1.9Z"/>
    <path d="M22.864 16.188v-1.9h-1.912V18.1h5.712v3.813h-5.712V18.1h-1.9V20h-3.813v1.913h1.9v1.9h9.525v3.812h1.913V18.1h9.525v-1.912H22.864Z"/>
    <path d="M40 16.188v-3.8h-1.9v3.8H40ZM17.137 14.288v-1.9h-1.9v1.9h1.9Z"/>
    <path d="M22.864 14.288h1.9v-1.9h13.338v-1.913H24.764v-1.9h-1.9v5.713ZM9.523 10.475v-1.9H7.611v1.9h1.912ZM13.336 8.575v-1.9H9.523v1.9h3.813ZM22.863 8.575v-1.9h-1.912v1.9h1.912ZM20.95 6.675V4.763h-7.613v1.912h7.612Z"/>
  </g>
  <defs>
    <clipPath id="a">
      <path fill="#fff" d="M40 0v40H0V0z"/>
    </clipPath>
  </defs>
</svg>
