<svg xmlns="http://www.w3.org/2000/svg" width="40" height="40" fill="none" viewBox="0 0 40 40">
  <g fill="#000001" clip-path="url(#a)">
    <path d="M22.862 29.525h1.9v3.813h5.712v1.9H17.137v-1.9h5.725v-3.813ZM34.29 31.425V12.388h-1.9v-1.913h1.9v-1.9h5.712v26.663h-5.713v-1.9h-3.812v-1.913h3.812Zm3.812 0v-3.8h-1.913v3.8h1.913Z"/>
    <path d="M15.238 33.338v-1.913h1.9v1.913h-1.9ZM22.86 27.625v1.9h-7.624v1.9h-1.9v-3.8h9.525ZM22.863 27.625v-3.813h1.9v3.813h-1.9ZM24.762 20v-5.712h1.9V20h-1.9Z"/>
    <path d="M17.136 16.188v-1.9h1.912V18.1h-5.712v3.813h5.712V18.1h1.9V20h3.813v1.913h-1.9v1.9h-9.525v3.812h-1.913V18.1H1.898v-1.912h15.238Z"/>
    <path d="M0 16.188v-3.8h1.9v3.8H0ZM22.863 14.288v-1.9h1.9v1.9h-1.9Z"/>
    <path d="M17.136 14.288h-1.9v-1.9H1.898v-1.913h13.338v-1.9h1.9v5.713ZM30.477 10.475v-1.9h1.912v1.9h-1.912ZM26.664 8.575v-1.9h3.813v1.9h-3.813ZM17.137 8.575v-1.9h1.912v1.9h-1.912ZM19.05 6.675V4.763h7.613v1.912h-7.612Z"/>
  </g>
  <defs>
    <clipPath id="a">
      <path fill="#fff" d="M0 0v40h40V0z"/>
    </clipPath>
  </defs>
</svg>
